<?xml version="1.0" encoding="utf-8"?>
<!-- Generator: Adobe Illustrator 23.0.5, SVG Export Plug-In . SVG Version: 6.00 Build 0)  -->
<svg version="1.1" id="Layer_1" xmlns="http://www.w3.org/2000/svg" xmlns:xlink="http://www.w3.org/1999/xlink" x="0px" y="0px"
	 viewBox="0 0 283.46 283.46" style="enable-background:new 0 0 283.46 283.46;" xml:space="preserve">
<path d="M144.05,19.94c13.78,0,27.56-0.02,41.34,0.02c3.55,0.01,7.1,0.1,10.63,0.35c2.27,0.16,2.9,0.85,2.96,3.21
	c0.13,4.8,0.11,9.6,0.11,14.4c-0.01,18.17-0.03,36.33-0.04,54.5c0,1.46-0.01,2.93,0.11,4.38c0.17,2.06,0.93,2.89,2.51,2.94
	c2.45,0.08,4.09-0.79,4.42-2.58c0.26-1.42,0.32-2.9,0.32-4.36c-0.03-13.36,0-26.72-0.18-40.08c-0.08-5.77-0.3-7.61,7.74-8.55
	c2.06-0.24,4.17-0.08,6.26-0.16c1.7-0.07,2.72-0.95,2.79-2.71c0.09-2.29,0.06-4.59,0.2-6.88c0.31-5.02,1.54-6.24,6.45-6.43
	c1.46-0.06,2.92-0.01,4.38-0.01c11.69,0.01,23.39-0.04,35.08,0.03c6.73,0.04,7.18,0.42,7.29,7.06c0.17,10.02,0.19,20.04,0.14,30.07
	c-0.02,3.48-0.53,3.88-4.02,4.15c-2.08,0.16-4.17,0.12-6.26,0.15c-10.23,0.11-20.46,0.25-30.69,0.31c-2.71,0.01-5.41-0.25-8.12-0.38
	c-2-0.1-3.01-1.34-3.33-3.13c-0.29-1.63-0.35-3.3-0.47-4.96c-0.15-1.87-0.19-3.75-0.41-5.61c-0.16-1.32-0.8-2.37-2.31-2.53
	c-1.9-0.2-3.54,0.67-3.91,2.34c-0.32,1.41-0.46,2.89-0.45,4.34c0.02,11.27,0.05,22.55,0.17,33.82c0.02,1.64,0.32,3.32,0.8,4.89
	c0.4,1.29,1.64,2.09,2.96,1.64c0.82-0.28,1.83-1.26,1.97-2.06c0.5-2.87,0.52-5.82,1.01-8.69c0.69-4.03,1.33-4.51,5.17-4.95
	c0.21-0.02,0.42-0.05,0.62-0.05c13.99-0.01,27.97-0.1,41.96,0.03c4.39,0.04,4.92,0.54,5.03,4.59c0.28,11.06,0.34,22.13,0.38,33.19
	c0.01,2.57-0.68,3.07-3.51,3.27c-2.5,0.18-5.01,0.23-7.51,0.24c-10.86,0.01-21.72-0.01-32.58-0.03c-0.84,0-1.67,0-2.51-0.03
	c-6.47-0.26-6.93-0.78-6.98-7.45c-0.01-2.08-0.04-4.17-0.22-6.25c-0.12-1.39-1.03-2.25-2.49-2.31c-1.51-0.06-3.07,0.13-3.68,1.73
	c-0.43,1.13-0.56,2.44-0.57,3.68c-0.04,11.9-0.04,23.8-0.03,35.7c0,1.25,0.08,2.51,0.29,3.74c0.34,1.97,1.52,2.84,3.51,2.77
	c1.62-0.05,2.31-0.82,2.53-2.88c0.3-2.9,0.6-5.81,0.86-8.72c0.2-2.18,1.5-3.42,3.49-3.88c1.81-0.43,3.68-0.84,5.53-0.85
	c11.9-0.05,23.8,0,35.71,0.03c0.63,0,1.25,0.05,1.88,0.09c5.94,0.44,6.09,0.56,6.17,6.75c0.1,7.93,0.15,15.87,0.19,23.8
	c0.01,2.09-0.03,4.18-0.19,6.26c-0.2,2.65-0.63,3.17-3.37,3.62c-2.05,0.34-4.15,0.47-6.23,0.5c-5.01,0.07-10.02,0-15.03,0.03
	c-7.72,0.04-15.45,0.21-23.17,0.16c-5.06-0.03-5.61-0.81-5.5-5.97c0.05-2.49,0.08-5.01-0.15-7.48c-0.23-2.48-0.76-2.85-3.14-2.83
	c-1.67,0.02-3.34,0.2-5.01,0.23c-6.72,0.1-8.24-1.2-8.52-7.77c-0.33-7.72-0.54-15.44-0.63-23.16c-0.07-5.84,0.1-11.68,0.17-17.52
	c0.01-1.25,0.11-2.51,0.04-3.76c-0.18-3.23-1.93-4.44-5.03-3.3c-0.8,0.29-1.65,1.3-1.86,2.13c-0.35,1.38-0.27,2.9-0.26,4.35
	c0.09,21.51,0.2,43.01,0.3,64.52c0,0.42,0.03,0.84,0.02,1.25c-0.03,5.49-0.59,6.18-5.85,6.68c-1.87,0.18-3.75,0.14-5.63,0.14
	c-13.99,0.01-27.98,0.18-41.97-0.07c-6.17-0.11-11.29,1.29-15.98,5.55c-5.57,5.05-11.27,9.9-16.3,15.52
	c-3.07,3.43-4.54,7.29-4.78,11.89c-0.47,9.18-0.71,18.34-0.14,27.54c0.31,4.99,0.25,10.02,0.14,15.03
	c-0.07,3.36-0.68,3.89-3.98,4.53c-1.02,0.2-2.07,0.3-3.11,0.36c-1.67,0.1-3.34,0.17-5.01,0.18c-25.47,0.18-50.95,0.37-76.42,0.48
	c-3.11,0.01-6.25-0.31-9.34-0.76c-2.99-0.43-3.21-0.73-3.4-3.52c-0.22-3.33-0.36-6.68-0.34-10.01c0.06-9.4,0.1-18.79,0.38-28.18
	c0.12-4.16,0.63-8.33,1.25-12.45c0.63-4.17,2.29-8.02,4.66-11.52c5.85-8.61,13.18-15.49,22.75-19.93c2.17-1.01,5.16-0.27,6.54-2.95
	c-1.23-1.92-2.46-3.83-3.68-5.76c-0.56-0.88-1.1-1.77-1.65-2.66c-6.45-10.44-6.41-20.95,0.1-31.26c3.04-4.8,3.96-9.75,3.88-15.39
	c-0.28-19.41-0.09-38.84-0.16-58.25c-0.01-2.47,0.66-4.5,2.34-6.24c1.45-1.5,2.89-3.01,4.42-4.43
	c10.23-9.53,20.45-19.07,30.75-28.53c2.45-2.25,5.17-4.22,7.76-6.31c2.38-1.92,5.08-2.62,8.15-2.61c16.5,0.07,32.99,0.03,49.49,0.03
	C144.05,19.96,144.05,19.95,144.05,19.94z M188.08,105.09c0-22.54-0.03-45.08,0.01-67.62c0.01-8.21-0.71-7.31-7.18-7.3
	c-26.3,0.02-52.6,0.07-78.9,0.11c-1.04,0-2.09,0.05-3.13,0.04c-1.76-0.01-2.72,0.83-2.8,2.6c-0.07,1.67-0.15,3.33-0.15,5
	c0.01,7.31,0.12,14.61,0.08,21.92c-0.05,9.25-0.33,9.57-9.43,9.66c-8.56,0.09-17.12-0.1-25.67-0.02c-8.29,0.08-8.39,0.24-8.41,8.37
	c-0.02,10.23-0.03,20.46,0.03,30.68c0.03,5.01,0.16,10.02,0.36,15.02c0.14,3.46,0.94,4.16,4.32,3.08
	c6.34-2.03,12.74-1.96,19.21-1.24c1.86,0.21,3.71,0.55,5.57,0.8c2.06,0.29,2.73-0.19,2.82-2.19c0.07-1.67-0.02-3.34-0.02-5.01
	c0.01-12.32-0.02-24.63,0.07-36.94c0.03-3.55,0.43-4.17,3.75-4.57c5.58-0.66,11.23-1.39,16.82-1.22c6.19,0.19,6.53,0.33,6.74,7.02
	c0.06,1.88-0.01,3.76-0.02,5.64c-0.02,10.02-0.04,20.03-0.06,30.05c-0.01,7.93-0.02,15.86-0.01,23.79c0,2.7-0.82,4.82-3.43,6.14
	c-3.49,1.77-4.77,4.85-5.2,8.67c-0.44,3.92-1.52,7.76-2.33,11.63c-0.17,0.81-0.62,1.67-0.47,2.41c0.12,0.56,0.94,1.18,1.57,1.34
	c0.47,0.13,1.17-0.35,1.68-0.68c8.16-5.19,15.27-11.59,21.69-18.78c1.61-1.8,1.49-2.63-0.54-3.93c-2.33-1.49-4.75-2.87-4.79-6.06
	c-0.13-12.73-0.33-25.45-0.24-38.18c0.03-3.87,0.98-4.81,4.95-5.03c5.82-0.33,11.67-0.24,17.5-0.1c3.18,0.08,3.96,0.83,4.35,4.16
	c0.43,3.72,0.51,7.49,0.62,11.24c0.13,4.38,0.04,8.77,0.24,13.14c0.04,0.85,0.76,2.06,1.49,2.4c1.3,0.59,2.34-0.41,3.04-1.51
	c1.4-2.17,1.88-4.6,1.89-7.16c0-5.84,0.07-11.69,0.05-17.53c-0.04-10.23-0.19-20.45-0.16-30.68c0.02-4.37,0.44-5.03,4.47-5.14
	c6.87-0.2,13.76,0.07,20.64,0.19c1.46,0.03,2.35,0.97,2.42,2.37c0.21,4.37,0.42,8.75,0.43,13.12c0,10.43-0.18,20.87-0.16,31.3
	c0.01,6.89,0.11,13.78,0.41,20.66c0.31,7.14-1.62,13.17-7.56,17.58c-1.33,0.99-2.5,2.2-3.74,3.32
	c-6.35,5.74-12.72,11.44-19.01,17.24c-1.45,1.34-4.22,2.61-3.15,4.79c0.93,1.88,3.76,0.98,5.76,0.94c8.35-0.13,16.7-0.25,25.04-0.61
	c8.16-0.36,8.55,1.79,8.54-8.57C188.07,149.34,188.08,127.22,188.08,105.09z M68.4,260.94c0-0.01,0-0.02,0-0.03
	c6.89,0,13.78,0.09,20.67-0.02c8.81-0.15,8.9-0.34,8.82-9.32c-0.08-9.18-0.06-18.37-0.23-27.55c-0.15-8.21,2.61-14.95,8.87-20.47
	c8.76-7.73,17.2-15.81,25.84-23.69c12.03-10.97,24.25-21.73,35.26-33.76c1.12-1.23,2.32-2.44,3.19-3.84
	c1.64-2.62,1.02-5.01-1.72-7.81c-1.61-1.63-3.74-1.89-6.23-0.07c-3.86,2.83-7.61,5.86-11.17,9.05c-5.91,5.29-11.62,10.8-17.44,16.18
	c-11.53,10.65-23.33,20.9-38.39,26.48c-2.99,1.11-5.21,3.34-6.76,6.24c-1.07,2.01-2.43,3.89-3.82,5.71
	c-3.5,4.55-8.23,6.99-13.89,7.55c-8.74,0.87-15.92-2.1-21.61-8.86c-4.87-5.78-4.95-5.71-11.93-2.52c-0.38,0.17-0.77,0.33-1.13,0.53
	c-9.24,5.04-16.01,11.99-17.42,22.95c-0.53,4.13-1.04,8.29-1.18,12.45c-0.28,8.55-0.54,17.11-0.32,25.66c0.13,5,0.09,5.99,6.65,4.78
	c0.61-0.11,1.18-0.41,1.78-0.59c1.62-0.47,2.36-1.61,2.43-3.23c0.07-1.67,0.13-3.34,0.13-5c0.01-7.31-0.02-14.61-0.02-21.92
	c0-2.92-0.17-5.86,0.11-8.76c0.22-2.24,0.74-4.54,1.62-6.61c0.87-2.06,3.52-2.81,5.98-2.22c2.18,0.52,2.04,2.38,2.18,4
	c0.14,1.66,0.15,3.33,0.17,5c0.07,7.72,0.08,15.45,0.21,23.17c0.07,4.38,0.27,8.76,0.56,13.13c0.15,2.19,0.95,2.92,3.12,3.18
	c1.45,0.17,2.92,0.17,4.37,0.18C54.21,260.95,61.31,260.94,68.4,260.94z M67.39,180.36c3.67-0.7,7.4-1.15,10.99-2.14
	c9.48-2.61,20.05-17.01,13.14-29.91c-4.06-7.58-10.16-12.68-18.62-14.48c-2.56-0.55-5.47-0.52-8.01,0.12
	c-3.4,0.85-6.79,2.19-9.81,3.96c-6.63,3.88-10.79,9.68-11.83,17.45C41.5,168.51,55.75,181.62,67.39,180.36z M250.92,148.57
	c0-0.01,0-0.02,0-0.03c-2.5,0-5.01-0.07-7.51,0.02c-1.86,0.07-3.76,0.17-5.57,0.57c-2.94,0.65-3.66,1.31-3.73,4.16
	c-0.13,4.79-0.14,9.6,0.19,14.38c0.27,3.86,1.34,5.02,5,5.08c8.13,0.13,16.26-0.02,24.39-0.28c3.06-0.1,3.81-0.91,3.85-3.76
	c0.07-5,0.01-10.02-0.33-15.01c-0.26-3.83-1.22-4.79-5.03-5.07C258.44,148.35,254.67,148.57,250.92,148.57z M250.12,37.5
	c0,0.12,0,0.24,0,0.36c-4.17,0-8.34-0.05-12.51,0.02c-1.89,0.03-3.32,1.04-3.33,3.01c-0.03,4.99-0.12,10.01,0.34,14.97
	c0.31,3.35,1.6,4.41,4.95,4.5c7.71,0.21,15.44,0.21,23.15,0.08c3.27-0.06,4.22-0.87,4.45-4.04c0.34-4.56,0.35-9.17,0.2-13.75
	c-0.14-4.03-0.85-4.85-4.76-5.1C258.47,37.28,254.29,37.5,250.12,37.5z M250.48,115.62c0,0.01,0,0.01,0,0.02c3.54,0,7.07,0,10.61,0
	c0.62,0,1.25-0.03,1.87-0.1c2.85-0.35,3.57-0.98,3.7-3.96c0.15-3.53,0.16-7.07,0.04-10.61c-0.21-5.93-0.71-6.56-6.45-6.69
	c-6.44-0.15-12.9,0.02-19.34,0.09c-1.03,0.01-2.08,0.15-3.09,0.37c-2.58,0.58-3.54,1.54-3.66,4.29c-0.17,3.74-0.2,7.49-0.06,11.23
	c0.16,4.29,0.99,5.15,5.16,5.33C242.99,115.74,246.74,115.62,250.48,115.62z M101.41,114.38c0.25-7.77,0.47-14.22,0.66-20.68
	c0.05-1.66,0.11-3.34-0.02-4.99c-0.12-1.58-0.9-2.78-2.67-2.94c-1.82-0.16-3.45,0.8-3.83,2.5c-0.31,1.41-0.4,2.89-0.4,4.33
	c0.07,12.51,0.15,25.01,0.31,37.52c0.03,2.06,0.31,4.17,0.84,6.16c0.65,2.45,3.06,4.44,4.27,3.76c1.77-0.98,1.44-2.83,1.45-4.48
	c0.01-1.04-0.06-2.08-0.09-3.13C101.75,125.99,101.56,119.54,101.41,114.38z M171.79,101.9c-0.08,0-0.17,0-0.25,0
	c0.2-6.03,0.41-12.06,0.57-18.09c0.03-1.23,0.02-2.52-0.33-3.67c-0.19-0.63-1.08-1.38-1.74-1.49c-3.36-0.55-5.7,1.28-6.04,4.54
	c-0.08,0.83-0.09,1.66-0.08,2.49c0.09,9.57,0.16,19.15,0.3,28.72c0.03,2.07,0.42,4.14,0.44,6.22c0.04,2.83,2.52,3.93,5.43,3.55
	c0.49-0.06,1.22-0.64,1.3-1.09c0.27-1.41,0.37-2.88,0.38-4.32C171.82,113.13,171.79,107.52,171.79,101.9z M84.59,50.62
	c0.34-3.96,0.58-6.65,0.79-9.34c0.08-1.1-0.65-1.65-1.53-1.11c-1.24,0.75-2.54,1.47-3.58,2.45c-5.42,5.15-10.79,10.37-16.11,15.62
	c-0.49,0.49-0.94,1.57-0.73,2.08c0.24,0.56,1.29,1.11,1.96,1.09c5.6-0.23,11.2-0.58,16.8-0.91c1.48-0.09,2.31-1.05,2.36-2.41
	C84.66,55.17,84.59,52.26,84.59,50.62z M130.03,125.69c0,3.95-0.1,7.9,0.03,11.85c0.08,2.54,0.96,3.17,3.57,3.18
	c2.53,0.01,3.28-0.67,3.55-3.26c0.08-0.82,0.08-1.66,0.07-2.49c-0.07-6.86-0.15-13.71-0.24-20.57c-0.01-0.62-0.08-1.24-0.21-1.85
	c-0.3-1.42-1.27-2.06-2.66-2.15c-2.66-0.17-4.01,0.84-4.09,3.44C129.94,117.79,130.03,121.74,130.03,125.69z M75.47,188.57
	c-5.69,0.37-10.23,0.61-14.76,0.98c-1.89,0.15-2.76,2.14-1.7,3.63c0.35,0.5,0.78,0.98,1.24,1.38c4.33,3.7,12.67,3.17,16.43-1.12
	c0.64-0.73,1.08-1.8,1.17-2.76c0.06-0.62-0.54-1.57-1.12-1.91C76.09,188.38,75.13,188.53,75.47,188.57z"/>
<path d="M141.88,61.81c-11.25,0-22.5,0.04-33.75-0.02c-5.32-0.03-5.64-0.46-5.42-5.74c0.12-2.95,0.66-3.65,3.65-3.91
	c2.49-0.22,5-0.21,7.49-0.21c19.79,0.04,39.59,0.1,59.38,0.15c0.83,0,1.67-0.01,2.5,0.03c5.44,0.27,5.98,0.92,5.37,6.47
	c-0.3,2.73-0.5,3.06-3.6,3.11c-8.54,0.14-17.08,0.13-25.63,0.17c-3.33,0.02-6.67,0-10,0C141.88,61.85,141.88,61.83,141.88,61.81z"/>
<path d="M124.23,45.59c-6.24,0-12.49,0.11-18.73-0.06c-2.3-0.06-2.78-0.92-2.86-3.25c-0.03-0.83,0.01-1.67,0.07-2.5
	c0.17-2.43,0.5-3.05,2.92-3.18c6.44-0.35,12.9-0.51,19.35-0.65c4.37-0.09,8.74-0.06,13.11,0.02c1.87,0.03,3.74,0.25,5.59,0.5
	c1.41,0.19,2.18,1.19,2.37,2.53c0.18,1.23,0.21,2.49,0.22,3.73c0.02,1.78-0.98,2.68-2.7,2.73c-4.78,0.15-9.57,0.26-14.36,0.37
	c-1.67,0.04-3.33,0.01-5,0.01C124.23,45.75,124.23,45.67,124.23,45.59z"/>
<path d="M171.47,40.94c-0.05-3.8,1.12-4.83,5.43-4.78c3.44,0.04,4.56,1.1,4.64,4.37c0.1,4.22-0.74,5.3-4.15,5.33
	C172.42,45.92,171.52,45.17,171.47,40.94z"/>
<path d="M158.45,45.86c-0.38-0.04-1.32,0.08-2-0.29c-0.82-0.45-1.76-1.21-2.03-2.03c-0.36-1.13-0.21-2.46-0.13-3.69
	c0.12-1.89,1.17-3.1,3.05-3.4c1.22-0.19,2.48-0.34,3.7-0.24c1.31,0.1,2.36,0.79,2.62,2.24c0.11,0.61,0.22,1.23,0.27,1.85
	C164.36,44.87,163.42,45.91,158.45,45.86z"/>
<path d="M69.02,113.43c0.03,2.21-0.46,2.86-2.67,3.49c-0.2,0.06-0.41,0.08-0.61,0.14c-5.05,1.54-6.03-0.1-5.75-4.7
	c0.1-1.7,0.96-2.68,2.63-2.94c0.62-0.1,1.23-0.21,1.85-0.24C67.87,108.99,68.97,110.02,69.02,113.43z"/>
<path d="M63.67,84.65c-2.95,0.12-3.98-1.06-3.67-3.43c0.42-3.23,1.29-4.17,4.08-4.41c3.04-0.26,5.05,1.9,4.48,4.99
	c-0.13,0.69-0.76,1.55-1.38,1.83C65.89,84.2,64.44,84.44,63.67,84.65z"/>
<path d="M64.99,93.16c0.57,0.11,1.2,0.17,1.8,0.35c1.35,0.4,2.08,1.34,2.12,2.74c0.04,1.33-0.32,2.51-1.67,3.06
	c-0.96,0.39-1.95,0.75-2.96,0.99c-2.73,0.64-3.98,0.06-4.42-1.96c-0.6-2.8,0.49-4.53,3.21-5.02C63.69,93.22,64.32,93.22,64.99,93.16
	z"/>
<path d="M251.4,157.06c1.24,0,2.49,0.02,3.73,0c2.88-0.04,4.32,2.3,3.91,5.12c-0.12,0.83-1,2.02-1.74,2.21
	c-4.23,1.08-8.56,1.6-12.91,0.73c-2.02-0.4-2.88-1.56-2.9-3.44c-0.01-1.85,0.7-3.37,2.55-3.78c2.41-0.53,4.88-0.74,7.33-1.09
	C251.38,156.89,251.39,156.98,251.4,157.06z"/>
<path d="M249.83,52.97c-1.65,0-3.3,0.05-4.95-0.01c-1.67-0.06-2.68-1.02-2.93-2.64c-0.31-1.96,0.72-4.25,2.29-4.61
	c4.06-0.93,8.19-1.13,12.29-0.23c1.57,0.34,2.63,2.64,2.42,4.58c-0.19,1.74-1.49,2.34-2.94,2.74c-0.4,0.11-0.81,0.18-1.22,0.19
	c-1.65,0.02-3.3,0.01-4.95,0.01C249.83,52.98,249.83,52.97,249.83,52.97z"/>
<path d="M250.2,110.3c-2.03-0.17-3.28-0.22-4.52-0.38c-3.36-0.44-4.14-1.08-4.34-3.4c-0.3-3.57,0.74-5.24,3.9-6.05
	c3.26-0.85,6.57-1.18,9.9-0.47c3.35,0.72,5.18,4.01,3.79,7.16c-0.43,0.98-1.67,1.95-2.73,2.23
	C254.03,109.97,251.72,110.09,250.2,110.3z"/>
</svg>
