<?xml version="1.0" encoding="utf-8"?>
<!-- Generator: Adobe Illustrator 23.0.5, SVG Export Plug-In . SVG Version: 6.00 Build 0)  -->
<svg version="1.1" id="Layer_1" xmlns="http://www.w3.org/2000/svg" xmlns:xlink="http://www.w3.org/1999/xlink" x="0px" y="0px"
	 viewBox="0 0 283.46 283.46" style="enable-background:new 0 0 283.46 283.46;" xml:space="preserve">
<path d="M142.37,15c25.36,0,50.73,0,76.09,0c0.85,0,1.71,0.05,2.56,0.01c9.59-0.46,16.08,4.45,21.01,12.09
	c0.12,0.18,0.23,0.36,0.33,0.55c2.85,4.98,2.74,6.59,7.83,1.15c0.15-0.16,0.3-0.31,0.45-0.45c3.49-3.17,6.89-6.32,12.27-5.6
	c6.29,0.84,11.39,3.56,14.9,8.81c3.47,5.19,4.23,10.65,0.3,16.05c-1.5,2.06-3.01,4.17-4.83,5.93c-5.37,5.17-10.88,10.2-16.38,15.23
	c-2.67,2.44-5.39,4.83-8.2,7.11c-2.88,2.34-4.03,5.3-4.03,8.95c0.06,24.93,0.06,49.87,0.1,74.8c0.01,4.05,0.04,8.1,0.21,12.14
	c0.12,2.81,0.69,3.4,3.47,3.47c5.96,0.15,11.93,0.14,17.9,0.2c2.34,0.02,4.69-0.01,7.03,0.08c5.96,0.22,6.36,0.36,6.65,6.02
	c0.49,9.79,0.64,19.59,0.92,29.38c0.02,0.64-0.02,1.28-0.09,1.91c-0.45,3.93-1.47,5.13-5.45,5.86c-1.87,0.34-3.81,0.35-5.73,0.39
	c-6.61,0.13-13.21,0.15-19.82,0.34c-3.65,0.1-3.82,0.3-4.67,3.86c-1.82,7.58-5.73,13.62-12.41,17.89c-2.05,1.31-4.05,2.27-6.45,2.46
	c-2.76,0.22-5.52,0.63-8.27,0.63c-20.89,0.07-41.77,0.08-62.66,0.07c-1.69,0-3.4-0.17-5.06-0.5c-1.82-0.36-3.1-1.56-3.32-3.44
	c-0.61-5.15,0.1-5.91,4.69-5.91c20.67-0.02,41.35-0.1,62.02-0.3c3.8-0.04,7.67-0.4,11.39-1.18c4.37-0.91,8.66-7.37,8.2-11.68
	c-0.13-1.18-0.97-1.91-2.17-1.91c-3.2-0.01-6.39,0.07-9.59,0.07c-19.82,0.02-39.64,0.05-59.46,0.04c-8.95,0-17.9-0.07-26.86-0.11
	c-1.49-0.01-2.99,0.09-4.47-0.07c-4.98-0.53-7.21-2.97-7.29-7.95c-0.13-8.52-0.23-17.04-0.32-25.57c-0.01-1.06-0.01-2.14,0.13-3.19
	c0.14-1.04,0.35-2.11,0.75-3.08c1.05-2.55,2.76-4.25,5.78-4.18c1.7,0.04,3.41-0.1,5.11-0.1c23.66-0.04,47.32-0.03,70.98-0.15
	c7.67-0.04,15.34-0.38,23-0.66c3.2-0.12,3.52-0.46,3.54-3.92c0.08-13,0.07-26,0.13-39c0.04-8.95,0.07-17.9,0.21-26.85
	c0.05-3.4,0.39-6.79,0.52-10.19c0.02-0.57-0.16-1.4-0.55-1.66c-0.37-0.25-1.35-0.14-1.7,0.2c-4.16,3.97-8.37,7.9-12.33,12.06
	c-2.27,2.39-2.75,5.39-2.64,8.84c0.51,15.76,0.63,31.53,0.87,47.3c0.02,1.06-0.08,2.13-0.2,3.19c-0.18,1.7-1.24,2.68-2.82,3.06
	c-1.24,0.3-2.51,0.53-3.78,0.6c-5.32,0.26-10.64,0.61-15.96,0.63c-18.76,0.07-37.51,0.08-56.27-0.02
	c-8.52-0.04-17.04-0.38-25.56-0.61c-1.28-0.03-2.55-0.21-3.82-0.32c-1.75-0.15-2.68-1.14-2.85-2.85c-0.11-1.06-0.19-2.12-0.24-3.18
	c-0.1-2.13-0.1-4.27-0.27-6.39c-0.21-2.52,0.26-5.68-1.09-7.35c-1.31-1.63-4.52-1.75-6.92-2.48c-14.51-4.44-26.11-12.71-32.8-26.56
	c-8.05-16.67-6.68-32.79,5.29-47.23c10.01-12.07,23.03-18.55,38.93-18.91c20.26-0.46,35.66,8.18,46.92,24.72
	c0.48,0.7,0.98,1.41,1.37,2.16c0.89,1.7,2.32,2.39,4.18,2.4c8.31,0.05,16.62,0.19,24.93,0.13c3.85-0.02,6.81-2.27,9.53-4.7
	c7.3-6.54,14.53-13.16,21.78-19.75c2.21-2.01,4.48-3.95,6.57-6.08c2.38-2.43,4.69-4.95,6.86-7.57c2.53-3.06,4.53-6.57,2.54-10.54
	c-2.25-4.49-5.54-8.16-10.91-8.97c-1.88-0.28-3.83-0.24-5.74-0.24c-43.05-0.08-86.11-0.16-129.16-0.19
	c-7.03-0.01-14.06,0.12-21.08,0.33c-2.1,0.07-4.2,0.62-6.29,1.01c-4.08,0.77-6.26,3.39-6.91,7.37c-0.34,2.1-0.67,4.22-0.79,6.34
	c-0.22,4.04-0.4,8.09-0.41,12.14c-0.07,28.56-0.09,57.12-0.14,85.68c0,2.13-0.01,4.27-0.19,6.38c-0.12,1.42-1.08,2.36-2.53,2.4
	c-1.68,0.04-3.42,0.08-5.03-0.31c-2.77-0.69-3.44-1.61-3.6-4.49c-0.19-3.4-0.33-6.81-0.32-10.22c0.07-28.35,0.18-56.7,0.3-85.04
	c0.01-2.98,0.12-5.97,0.27-8.95c0.42-8.33,4.89-14.41,11.26-19.16c1.75-1.3,4.31-1.87,6.56-2.06c5.09-0.43,10.22-0.53,15.33-0.54
	c22.81-0.05,45.61-0.02,68.42-0.02C142.37,15.03,142.37,15.02,142.37,15z M160.23,158.06c0-0.15,0-0.31,0-0.46
	c12.13,0,24.26,0.01,36.39-0.01c1.91,0,3.83-0.1,5.74-0.16c1.83-0.05,2.6-1.21,2.87-2.83c0.11-0.63,0.15-1.27,0.16-1.91
	c0.17-10.85,0.33-21.7,0.45-32.56c0.01-0.56-0.26-1.41-0.65-1.61c-0.43-0.22-1.3-0.01-1.74,0.33c-2.67,2.09-5.19,4.36-8.5,5.51
	c-6.85,2.38-13.81,4.28-21.05,4.93c-2.1,0.19-4.25,0.04-6.37-0.12c-1.67-0.12-2.77-1.07-2.82-2.86c-0.03-1.27-0.16-2.59,0.11-3.8
	c0.96-4.35,1.98-8.7,3.15-13c1.41-5.19,3.48-10.05,7.77-13.64c0.46-0.39,0.75-1.03,1.03-1.59c0.44-0.88,0.3-1.77-0.77-1.89
	c-1.68-0.2-3.39-0.25-5.08-0.19c-7.37,0.23-8.12-1.62-8.87,8.27c-1.04,13.68-6.24,25.49-17.32,34.27
	c-6.93,5.49-14.37,9.76-23.16,11.54c-5.7,1.16-5.66,1.38-5.32,7.28c0.04,0.64,0.04,1.28,0.1,1.91c0.17,1.82,1.34,2.54,3.01,2.65
	c0.63,0.04,1.27-0.07,1.91-0.07C134.26,158.06,147.24,158.06,160.23,158.06z M201.71,208.8c0,0.04,0,0.08,0,0.12
	c17.67,0,35.35,0.01,53.02-0.01c3.83,0,7.67-0.03,11.49-0.21c2.74-0.13,3.59-0.81,3.62-3.39c0.06-6.17-0.1-12.34-0.3-18.5
	c-0.06-1.91-0.98-2.44-2.98-2.42c-1.96,0.02-3.05,0.8-3.6,2.83c-0.54,2-1.44,3.99-2.56,5.74c-1.37,2.15-3.75,1.69-5.83,1.43
	c-2.09-0.26-2.55-1.97-2.78-3.75c-0.17-1.26-0.27-2.55-0.57-3.78c-0.33-1.35-1.18-2.23-2.71-2.2c-1.63,0.03-2.94,0.5-3.34,2.29
	c-0.32,1.45-0.49,2.96-0.99,4.35c-0.34,0.93-0.96,2.03-1.78,2.46c-2.15,1.16-4.65,1.32-6.74,0.18c-1.04-0.57-1.47-2.37-2.02-3.69
	c-0.41-0.97-0.58-2.04-0.84-3.08c-0.4-1.62-1.24-2.64-3.07-2.64c-1.96,0-3.23,0.81-3.74,2.76c-0.38,1.44-0.78,2.88-1.27,4.29
	c-0.89,2.58-1.59,3.02-4.2,2.83c-3.26-0.23-3.9-0.73-4.87-3.87c-0.38-1.22-0.74-2.44-1.1-3.67c-0.4-1.38-1.26-2.19-2.73-2.22
	c-1.59-0.03-2.98,0.42-3.62,2.03c-0.4,0.98-0.59,2.05-0.96,3.04c-1.33,3.67-2.84,4.74-6.54,4.82c-1.7,0.04-2.9-0.62-3.41-2.26
	c-0.64-2.02-1.12-4.11-1.84-6.1c-0.62-1.71-2.74-2.39-4.17-1.26c-0.94,0.74-1.67,1.88-2.19,2.98c-0.62,1.34-0.81,2.87-1.4,4.23
	c-0.31,0.72-0.94,1.49-1.63,1.82c-3.24,1.57-6.34,0.11-7.35-3.33c-0.36-1.22-0.67-2.46-1.02-3.69c-0.47-1.64-1.51-2.53-3.28-2.35
	c-1.63,0.16-2.79,0.92-3.24,2.58c-0.45,1.64-0.8,3.31-1.42,4.88c-0.98,2.46-3.2,2.41-5.39,2.4c-2-0.01-3.17-0.92-3.62-2.86
	c-0.43-1.86-0.86-3.74-1.45-5.55c-0.47-1.46-1.79-1.96-3.06-1.39c-1.06,0.48-2.13,1.39-2.69,2.39c-0.71,1.26-0.82,2.85-1.35,4.23
	c-0.87,2.31-2.79,3.1-5.08,3.1c-2.21,0-3.52-1.32-4.19-3.3c-0.48-1.41-0.85-2.86-1.28-4.28c-0.53-1.73-1.79-2.28-3.46-2.06
	c-2.53,0.33-3.96,1.52-3.97,4.13c-0.02,5.74,0.24,11.48,0.48,17.22c0.06,1.42,1.01,2.36,2.47,2.44c2.55,0.14,5.1,0.23,7.65,0.23
	C163.81,208.81,182.76,208.8,201.71,208.8z M104.68,111.5c0.1,0,0.19,0,0.29-0.01c0-7.24-0.11-14.48,0.04-21.72
	c0.1-5.04,1.88-6.89,6.81-7.56c1.68-0.23,3.4-0.21,5.1-0.18c7.67,0.11,15.33,0.3,22.99,0.38c1.57,0.02,3.92,0.88,4.4-1.11
	c0.3-1.23-0.96-3.2-2.04-4.33c-8.88-9.33-19.25-15.07-32.73-14.27c-17.44,1.03-29.49,9.78-37.17,24.99
	c-2.76,5.46-3.15,11.37-1.72,17.43c3.14,13.32,11.03,22.86,23.1,28.91c2.96,1.48,6.49,1.86,9.81,2.54c0.46,0.1,1.55-0.87,1.67-1.48
	c0.28-1.44,0.22-2.96,0.17-4.44C105.18,124.26,104.92,117.88,104.68,111.5z M115.99,115.06c0.05,0,0.09,0,0.14,0
	c0,4.47-0.14,8.94,0.03,13.4c0.36,9.6-1.24,10.52,9.25,6.09c13.61-5.75,22.53-15.71,25.56-30.42c0.5-2.45,0.56-5.07,0.34-7.57
	c-0.35-4.02-0.64-4.37-4.61-4.46c-8.71-0.19-17.43-0.22-26.15-0.11c-3.88,0.05-4.44,0.68-4.52,4.56
	C115.89,102.72,115.99,108.89,115.99,115.06z M256.27,52.44c-0.24-0.69-0.3-1.39-0.67-1.83c-1.23-1.47-2.54-2.87-3.87-4.25
	c-1.84-1.91-2.8-2.06-4.85-0.23c-3.97,3.54-7.81,7.23-11.7,10.85c-9.35,8.7-18.74,17.36-28.04,26.12
	c-6.35,5.98-12.66,12.01-18.81,18.2c-5.44,5.47-2.98,5.12,0.56,9.03c1.76,1.94,3.02,2.05,5.06,0.58c2.41-1.74,4.69-3.68,6.88-5.7
	c14.85-13.73,29.68-27.48,44.47-41.27c3.27-3.05,6.4-6.24,9.56-9.41C255.43,53.95,255.8,53.16,256.27,52.44z M269.63,40.94
	c0.18-3.81-3.83-8.54-6.99-8.55c-1.41,0-2.89,0.59-4.18,1.23c-0.52,0.26-1.09,1.7-0.85,2.04c2.08,2.93,4.23,5.81,6.58,8.52
	c1.06,1.22,2.87,0.92,3.9-0.44C268.83,42.76,269.29,41.57,269.63,40.94z M173.4,117.6c2.75,1.18,4.43,2.52,5.26,2.12
	c1.64-0.79,3.06-2.4,3.98-4.01c0.24-0.41-2.33-3.16-2.6-3.01C178,113.84,176.21,115.42,173.4,117.6z"/>
<path d="M79.2,270.15c-21.53,0-43.06,0.01-64.58-0.01c-9.46-0.01-9.82-0.17-9.86-9.62c-0.14-31.97-0.13-63.94-0.13-95.91
	c0-8.53,0.14-17.05,0.23-25.58c0.02-1.7-0.04-3.43,0.22-5.1c0.54-3.52,3.09-5.12,6.51-4.01c1.38,0.45,2.68,1.29,3.84,2.19
	c2.69,2.09,5.38,4.2,7.89,6.51c12.39,11.4,24.72,22.86,37.07,34.3c1.56,1.45,3.11,2.92,4.67,4.36
	c21.46,19.8,42.97,39.54,64.34,59.43c7.8,7.26,15.32,14.81,22.87,22.33c1.47,1.46,2.8,3.24,3.64,5.11c1.02,2.25-0.16,4.23-2.66,4.69
	c-3.12,0.57-6.31,1.09-9.47,1.1c-21.53,0.09-43.05,0.05-64.58,0.05C79.2,270.05,79.2,270.1,79.2,270.15z M75.81,259.85
	c0,0.04,0,0.07,0,0.11c17.69,0,35.38,0.01,53.08-0.02c1.47,0,2.96-0.15,4.41-0.43c0.31-0.06,0.79-1.14,0.62-1.48
	c-0.45-0.91-1.08-1.81-1.84-2.48c-3.05-2.66-6.29-5.11-9.25-7.86c-16.72-15.51-33.4-31.06-50.05-46.63
	c-17.12-16.01-34.19-32.08-51.32-48.07c-1.19-1.11-3.05-2.8-4.1-2.49c-2.3,0.67-1.19,3.24-1.19,4.95c-0.01,32.4,0.05,64.8,0.14,97.2
	c0.02,7.07,0.18,7.15,7.07,7.21c0.43,0,0.85-0.01,1.28-0.01C41.7,259.85,58.76,259.85,75.81,259.85z"/>
<path d="M70.18,36.26c-0.01,3.23-2,5.71-4.69,5.84c-3.31,0.16-5.54-2.17-5.43-5.68c0.11-3.39,1.67-4.74,5.39-4.69
	C68.91,31.78,70.19,33.01,70.18,36.26z"/>
<path d="M100.78,41.55c-3.49,0.05-4.37-0.73-4.35-3.56c0-1.05,0.14-2.1,0.26-3.14c0.2-1.76,1.27-2.54,2.98-2.59
	c0.63-0.02,1.26-0.11,1.89-0.12c3.53-0.08,4.62,0.81,5.11,4.1c0.48,3.29-0.54,4.64-3.85,5.09
	C101.98,41.45,101.14,41.51,100.78,41.55z"/>
<path d="M78.51,36.52c0.11-0.7,0.16-1.78,0.46-2.78c0.16-0.54,0.71-1.33,1.14-1.37c2.08-0.19,4.19-0.29,6.27-0.12
	c0.57,0.05,1.34,1.04,1.54,1.74c0.33,1.2,0.41,2.51,0.37,3.76c-0.09,2.62-0.69,3.21-3.31,3.62c-0.84,0.13-1.67,0.27-2.52,0.36
	c-2.56,0.27-3.49-0.45-3.8-2.96C78.58,38.15,78.57,37.51,78.51,36.52z"/>
<path d="M57.73,244.5c-5.53,0-11.07,0.02-16.6-0.01c-1.7-0.01-3.41-0.01-5.1-0.23c-3.16-0.4-4.04-1.28-4.06-4.55
	c-0.09-12.34-0.13-24.68-0.04-37.03c0.02-2.31,0.47-4.68,1.16-6.89c0.99-3.16,3.7-4.2,6.54-2.37c3.39,2.18,6.74,4.51,9.69,7.24
	c11.86,10.99,23.6,22.12,35.28,33.3c1.47,1.41,2.59,3.35,3.41,5.24c0.79,1.81-0.29,3.47-2.28,3.75c-4,0.55-8.02,1.08-12.05,1.24
	c-5.31,0.21-10.64,0.05-15.96,0.05C57.73,244.34,57.73,244.42,57.73,244.5z M42.6,222.02c0.08,0,0.16,0,0.25,0
	c0.14,2.76,0.19,5.53,0.44,8.29c0.27,2.9,1.03,3.72,4.04,3.83c5.1,0.19,10.21,0.12,15.32,0.14c0.41,0,1.03-0.04,1.19-0.29
	c0.4-0.61,0.81-1.36,0.81-2.05c0-0.53-0.55-1.13-0.99-1.56c-5.01-4.92-10.01-9.84-15.08-14.69c-1.06-1.01-2.35-1.8-3.62-2.56
	c-0.98-0.58-2.31,0.14-2.34,1.26C42.56,216.92,42.6,219.47,42.6,222.02z"/>
</svg>
