<?xml version="1.0" encoding="utf-8"?>
<!-- Generator: Adobe Illustrator 23.0.5, SVG Export Plug-In . SVG Version: 6.00 Build 0)  -->
<svg version="1.1" id="Layer_1" xmlns="http://www.w3.org/2000/svg" xmlns:xlink="http://www.w3.org/1999/xlink" x="0px" y="0px"
	 viewBox="0 0 283.46 283.46" style="enable-background:new 0 0 283.46 283.46;" xml:space="preserve">
<path d="M171.56,232.91c0-8.84,0.1-17.67-0.03-26.51c-0.11-7.53-0.27-7.62-7.99-7.45c-4.41,0.1-8.83,0.26-13.23,0.65
	c-2.61,0.23-3.28,1.1-3.61,3.55c-0.14,1.04-0.17,2.1-0.17,3.15c0.01,15.57-0.01,31.14,0.06,46.71c0.03,6.2,0.55,6.6,7.01,6.53
	c2.1-0.02,4.21-0.14,6.3-0.01c2.3,0.14,2.82,0.74,3.23,3.09c0.11,0.62,0.19,1.25,0.22,1.88c0.12,2.34-0.43,3.09-2.59,3.55
	c-0.62,0.13-1.24,0.25-1.87,0.28c-11.98,0.62-23.95,1.02-35.94,0.39c-2.94-0.15-4.07-1.46-4.11-4.36c-0.03-2.57,1.01-3.95,3.62-4.27
	c2.91-0.36,5.87-0.37,8.81-0.6c3.56-0.28,4.32-1.06,4.54-4.65c0.08-1.26-0.02-2.52-0.02-3.78c0.02-13.88,0.06-27.76,0.05-41.65
	c0-2.52-0.07-5.05-0.33-7.55c-0.24-2.27-0.88-2.88-3.33-2.84c-6.1,0.09-12.19,0.37-18.28,0.58c-2.04,0.07-3.02,1.22-3.16,3.18
	c-0.21,2.93-0.57,5.86-0.57,8.8c-0.02,15.15,0.06,30.3,0.08,45.44c0,2.1-0.02,4.21-0.13,6.31c-0.25,4.83-0.79,5.45-5.35,5.98
	c-1.46,0.17-2.94,0.1-4.41,0.12c-5.26,0.05-10.52,0.11-15.78,0.13c-1.89,0.01-3.8,0.07-5.67-0.17c-4.63-0.61-5.91-1.89-5.97-6.48
	c-0.17-13.88-0.2-27.76-0.29-41.64c-0.02-3.36,0.03-6.73-0.2-10.08c-0.16-2.25-0.98-2.85-3.19-3.16c-0.62-0.09-1.26-0.13-1.89-0.12
	c-9.25,0.14-18.5,0.29-27.75,0.45c-0.63,0.01-1.26,0.04-1.89,0.11c-3.16,0.39-3.65,0.87-3.86,3.81c-0.06,0.84-0.02,1.68-0.03,2.52
	c-0.12,15.56-0.23,31.13-0.35,46.69c-0.01,0.84,0.01,1.69-0.06,2.52c-0.28,3.21-1.07,4-4.25,4.32c-4.55,0.46-5.5-0.27-5.54-5.18
	c-0.12-15.77-0.12-31.55-0.16-47.32c0-1.47,0-2.94-0.03-4.42c-0.06-2.32-1.19-3.91-3.21-5.04c-2.38-1.33-4.74-2.73-6.98-4.28
	c-3.81-2.64-6.23-6.25-6.8-10.91C5.89,186.6,5.16,182,5.11,177.4c-0.17-16.41-0.09-32.82-0.1-49.23c0-0.84,0.04-1.68,0.05-2.52
	c0.14-9.11,4.6-15.48,12.48-19.67c0.19-0.1,0.39-0.16,0.58-0.25c3.98-2.05,4.06-2.35,2.26-6.16c-1.44-3.04-2.77-6.13-4.21-9.17
	c-3.7-7.79-2.79-15.26,2.12-22.08c8.11-11.26,18.89-17.14,33.11-15.07c13.42,1.95,24.36,12.13,27.27,24.74
	c1.59,6.89-0.07,12.94-3.85,18.55c-2.11,3.13-4.65,5.96-6.96,8.96c-1.42,1.85-1.4,2.48,0.09,4.43c0.76,1,1.69,1.89,2.4,2.93
	c2.54,3.71,4.26,7.68,4.2,12.32c-0.09,6.52-0.15,13.05,0,19.56c0.18,7.46,0.48,7.62,8.13,7.24c8.02-0.4,8.13-0.52,8.02-8.34
	c-0.04-2.94-0.11-5.89-0.09-8.83c0.04-4.91,1.23-9.61,3.13-14.09c3.24-7.65,9.33-12.51,16.83-15.24c6.12-2.22,5.91-2.82,3.13-7.74
	c-2.17-3.85-3.88-7.92-4.59-12.36c-0.72-4.52-0.11-8.77,1.96-12.86c5.18-10.24,13.51-16.6,24.53-19.13
	c8.17-1.87,15.88,0.42,22.98,4.53c6,3.48,10.34,8.6,13.15,14.91c2.83,6.37,1.87,12.79-0.57,19.02c-1.22,3.11-2.93,6.04-4.43,9.04
	c-0.97,1.94-0.79,2.56,1.14,3.38c0.96,0.41,1.98,0.7,2.97,1.03c13.26,4.37,21.18,15.74,20.82,29.73c-0.1,3.99-0.07,8,0.11,11.99
	c0.19,4.46,0.72,4.88,5.39,4.88c2.31,0,4.63-0.13,6.93-0.36c2.56-0.26,3.25-0.92,3.57-3.55c0.25-2.08,0.27-4.2,0.29-6.3
	c0.05-5.05,0-10.1,0.06-15.15c0.07-5.89,1.75-11.11,6.07-15.41c2.37-2.36,2.21-3.17,0.1-5.97c-2.02-2.68-4.25-5.22-6.06-8.04
	c-8-12.44-5.45-23.71,3.98-33.83c3.93-4.21,8.66-7.39,14.17-9.14c2.58-0.82,5.32-1.5,8-1.54c12.6-0.18,26.43,6.64,32.42,20.97
	c2.25,5.38,2.29,10.68,0.05,15.92c-1.73,4.04-3.86,7.92-5.9,11.82c-0.73,1.39-0.63,2.4,0.79,3.09c1.51,0.74,3.13,1.27,4.59,2.09
	c5.37,3.02,9.3,7.21,10.23,13.57c0.43,2.91,0.86,5.85,0.88,8.77c0.07,15.36,0.05,30.71-0.02,46.07c-0.02,3.78-0.45,7.56-0.51,11.34
	c-0.11,7.11-3.62,12.36-8.87,16.69c-1.78,1.47-3.61,2.93-5.61,4.05c-1.68,0.94-2.46,2.23-2.64,3.98c-0.23,2.3-0.46,4.61-0.49,6.92
	c-0.2,13.67-0.35,27.35-0.51,41.02c-0.02,1.26,0.02,2.53-0.07,3.79c-0.3,4.13-1.99,5.57-6.09,5.25c-2.58-0.2-3.39-0.93-3.58-3.42
	c-0.11-1.47-0.08-2.94-0.08-4.42c-0.02-14.52-0.01-29.03-0.07-43.55c-0.04-9.24,0.21-8.67-8.59-8.78c-7.78-0.1-15.57-0.18-23.35,0
	c-6.54,0.14-7.09,0.77-7.15,7.45c-0.11,13.88-0.09,27.77-0.12,41.66c0,1.47,0.1,2.94,0.08,4.42c-0.09,5.86-1.4,7.63-7.33,7.86
	c-8.19,0.32-16.4,0.07-24.6,0.03c-0.83,0-1.66-0.26-2.48-0.42c-1.38-0.27-2.3-1.09-2.48-2.48c-0.29-2.29-0.62-4.6-0.64-6.9
	c-0.07-8.83-0.03-17.67-0.03-26.5C171.9,232.91,171.73,232.91,171.56,232.91z M266.52,155.5c0.03,0,0.06,0,0.08,0
	c0-10.1-0.09-20.19,0.03-30.29c0.09-7.66-4.91-10.93-9.95-11.93c-9.15-1.81-18.39-2.05-27.58-0.14c-5.45,1.14-9.02,4.36-10.02,9.99
	c-0.33,1.85-0.51,3.76-0.52,5.64c-0.03,5.68,0.07,11.36,0.08,17.04c0.01,3.36,0.06,6.74-0.12,10.09c-0.18,3.44-1.42,5.01-4.67,5.78
	c-1.82,0.43-3.75,0.5-5.63,0.51c-11.15,0.04-22.29,0.04-33.44,0.02c-5.09-0.01-5.88,0.79-5.5,5.83c0.24,3.22,0.98,4.01,4.2,4.31
	c1.25,0.12,2.52,0.14,3.78,0.14c15.56-0.09,31.12-0.18,46.68-0.29c1.47-0.01,2.95-0.07,4.41-0.21c1.44-0.14,2.3-1.04,2.42-2.46
	c0.17-1.88,0.25-3.78,0.26-5.67c0.02-6.31-0.03-12.62,0.01-18.93c0.01-1.89,0.16-3.78,0.4-5.65c0.21-1.59,1.26-2.72,2.78-3.13
	c5.58-1.51,6.74-0.23,6.7,4.7c-0.08,10.73,0.11,21.45,0.19,32.18c0.01,1.26,0,2.53-0.08,3.79c-0.23,3.93-0.8,4.62-4.83,5.14
	c-2.29,0.29-4.61,0.33-6.92,0.35c-11.15,0.1-22.3,0.03-33.45,0.27c-6.56,0.14-10.54,3.56-12.02,9.79c-0.43,1.82-0.71,3.73-0.72,5.6
	c-0.07,18.72-0.1,37.45-0.07,56.17c0.01,4.91,0.34,5.12,5.48,5.37c0.63,0.03,1.26,0.05,1.89,0.05c8.22,0.01,8.84-0.62,8.84-9.03
	c0-2.52-0.04-5.05-0.03-7.57c0.04-11.57,0.08-23.14,0.16-34.71c0.02-2.1,0.17-4.2,0.42-6.29c0.28-2.38,1.73-3.83,4.11-4.08
	c2.09-0.22,4.2-0.28,6.3-0.29c12.41-0.05,24.82,0,37.23-0.14c3.77-0.04,7.54-0.52,11.3-0.91c2.45-0.26,4.12-1.73,5.65-3.64
	c1.87-2.34,2.14-4.98,2.15-7.73C266.54,175.27,266.52,165.39,266.52,155.5z M16.31,155.05c0.03,0,0.06,0,0.1,0
	c0,9.04-0.07,18.08,0.04,27.12c0.03,2.71,0.48,5.43,0.92,8.11c0.61,3.8,3.07,5.91,6.75,6.5c2.48,0.4,5.01,0.65,7.52,0.67
	c12.61,0.09,25.23,0.07,37.84,0.1c3.36,0.01,6.73-0.06,10.09,0.08c2.19,0.09,2.97,0.85,3.18,3.12c0.25,2.71,0.3,5.45,0.32,8.18
	c0.06,13.24,0.07,26.49,0.12,39.73c0.01,1.89,0.01,3.79,0.18,5.67c0.35,3.99,1.12,4.82,4.94,5.04c2.3,0.13,4.63,0.08,6.93-0.07
	c4.12-0.26,4.51-0.74,4.7-5c0.02-0.42,0.01-0.84,0.01-1.26c-0.08-18.08-0.16-36.16-0.26-54.24c-0.01-1.47-0.11-2.94-0.27-4.4
	c-0.81-7.21-6.21-11.01-11.49-11.47c-2.72-0.24-5.45-0.39-8.18-0.42c-9.04-0.09-18.08-0.02-27.12-0.18
	c-2.7-0.05-5.39-0.61-8.07-1.04c-1.91-0.3-2.91-1.54-3.03-3.47c-0.07-1.05-0.13-2.1-0.13-3.15c-0.03-10.51-0.06-21.02-0.06-31.53
	c0-1.26,0.09-2.52,0.27-3.77c0.19-1.39,1.03-2.29,2.45-2.48c1.04-0.14,2.1-0.2,3.14-0.16c3.56,0.14,4.62,0.9,4.83,4.4
	c0.36,5.87,0.37,11.76,0.56,17.64c0.11,3.36,0.2,6.72,0.41,10.07c0.12,1.92,1.21,3.07,3.22,3.19c1.68,0.1,3.36,0.26,5.04,0.27
	c14.08,0.15,28.17,0.3,42.25,0.39c1.88,0.01,3.79-0.16,5.65-0.42c3.26-0.45,4.31-1.75,4.18-5.06c-0.04-1.04-0.29-2.07-0.51-3.09
	c-0.35-1.67-1.51-2.46-3.12-2.62c-1.04-0.1-2.1-0.12-3.15-0.11c-10.51,0.16-21.01,0.36-31.52,0.5c-1.88,0.02-3.8-0.02-5.65-0.31
	c-3.5-0.55-4.32-1.44-4.79-4.8c-0.17-1.24-0.22-2.51-0.23-3.77c-0.08-6.52-0.07-13.03-0.23-19.55c-0.07-3.14-0.21-6.32-0.72-9.41
	c-1.03-6.26-4.73-10.26-11.03-11.39c-8.12-1.46-16.31-1.75-24.41,0.14c-8.96,2.09-11.5,5.24-11.65,14.49
	C16.2,136.55,16.31,145.8,16.31,155.05z M141.66,172.3c0,0.05,0,0.11,0,0.16c3.36,0,6.72,0.08,10.08-0.02
	c6.18-0.18,6.16-0.22,6.35-6.37c0.09-2.73,0.26-5.45,0.4-8.17c0.14-2.63,1.26-4.35,4.1-4.67c2.5-0.28,4.97-0.81,7.47-1.04
	c2.3-0.21,4.62-0.13,6.93-0.23c3.88-0.18,4.56-0.69,4.47-4.36c-0.14-5.66-0.3-11.35-0.92-16.98c-0.94-8.45-8.03-16.04-16.34-18.03
	c-3.61-0.87-4.88-0.37-6.47,3.11c-1.92,4.2-3.51,8.54-5.43,12.74c-1.83,4-3.91,7.88-5.84,11.83c-1.27,2.59-3.54,3.62-6.17,3.55
	c-2.63-0.07-3.96-2.11-4.88-4.34c-1.83-4.47-3.57-8.97-5.47-13.41c-1.65-3.85-3.33-7.72-5.28-11.42c-1.45-2.75-2.92-3.28-5.73-2.21
	c-2.53,0.96-4.95,2.28-7.3,3.64c-6.74,3.89-10.3,9.72-10.23,17.57c0.04,4.41,0.13,8.82,0.45,13.21c0.35,4.86,0.71,5.1,5.77,5.32
	c1.89,0.08,3.78-0.06,5.67,0.04c2.09,0.11,4.18,0.33,6.26,0.57c2.68,0.31,4.05,1.81,4.3,4.54c0.36,3.97,0.84,7.93,1.37,11.89
	c0.31,2.31,0.87,2.97,3.23,3.05C132.83,172.4,137.25,172.3,141.66,172.3z M163.06,83.21c0.1-3.01-0.34-6.57-2.51-9.61
	c-7.92-11.08-21.26-15.84-33.74-5.41c-6.01,5.02-8.48,11.58-6.51,19.19c1.98,7.61,6.61,13,14.77,14.7c5.3,1.1,10.48,0.76,15.53-1.01
	C157.92,98.52,162.88,91.53,163.06,83.21z M47.64,102.69c5.35-0.4,11.48-2.48,16.11-7.46c4.36-4.69,6.34-10.3,4.28-16.78
	c-2.43-7.63-7.87-12.29-15.19-14.71c-10.1-3.33-22.9,3.2-27.23,13.79c-0.46,1.13-0.53,2.45-0.6,3.7
	C24.34,93.1,34,102.83,47.64,102.69z M236.5,63.29c-6.67,0.08-14.56,4.03-18.6,9.24c-3.47,4.48-4.58,9.51-2.87,14.85
	c2.17,6.79,6.75,11.65,13.48,14.05c9.17,3.27,20.49,1.37,27.28-10.82c1.97-3.54,2.52-7.16,1.59-10.94
	C255.05,70.26,243.93,62.51,236.5,63.29z M141.61,182.12c0-0.03,0-0.05,0-0.08c-3.99,0-7.97-0.06-11.96,0.01
	c-6.08,0.12-12.16,0.28-18.24,0.54c-2.17,0.09-3.01,1.37-2.58,3.37c0.61,2.84,1.55,3.66,4.88,3.66c17.62,0,35.25-0.05,52.87-0.13
	c1.45-0.01,2.96-0.14,4.34-0.56c1.97-0.6,3.09-2.06,3.13-4.22c0.02-1.19-0.44-2.06-1.63-2.29c-1.02-0.2-2.08-0.29-3.12-0.29
	C160.07,182.11,150.84,182.12,141.61,182.12z M146.11,117.2c0.31-3.17-0.48-4.29-2.56-4.45c-1.44-0.11-2.92-0.05-4.36,0.15
	c-1.42,0.19-2.24,1.24-2.18,2.63c0.13,2.77,0.97,5.33,2.9,7.43c1.43,1.56,3.19,1.5,4.06-0.34
	C144.95,120.57,145.65,118.39,146.11,117.2z"/>
<path d="M87.09,15.58c7.99,0,15.97,0,23.96,0c1.68,0,3.37-0.03,5.04,0.09c5.09,0.38,7.63,2.13,8.17,7.04
	c0.63,5.82,0.44,11.73,0.5,17.6c0.02,2.11-1.26,3.63-3.1,4.37c-1.72,0.7-3.6,1.15-5.44,1.36c-3.76,0.43-7.54,0.65-11.31,0.89
	c-4.27,0.27-8.26,1.36-11.88,3.72c-2.29,1.49-4.65,2.87-7,4.25c-1.27,0.74-2.54,1.52-3.9,2.04c-4.03,1.54-7.47,0.5-8.66-3.6
	c-1.28-4.4-4.14-5.28-7.9-5.71c-4.16-0.48-8.29-1.15-12.42-1.82c-1.95-0.32-2.76-1.7-2.88-3.59c-0.4-6.51-0.86-13.01,0.06-19.51
	c0.77-5.42,2.21-6.91,7.77-6.99c9.67-0.14,19.34-0.04,29.01-0.04C87.09,15.65,87.09,15.62,87.09,15.58z M87.53,26.38
	c0,0.03,0,0.07,0,0.1c-5.47,0-10.93-0.04-16.4,0.02c-2.31,0.03-4.63,0.14-6.9,0.52c-0.86,0.14-2.03,0.99-2.29,1.78
	c-1.27,3.78-0.28,7.45,4.52,7.52c3.35,0.05,6.7,0.26,10.05,0.5c2.15,0.15,3.9,0.98,5.49,2.65c3.06,3.21,3.53,3.35,6.89,0.96
	c3.42-2.44,7.1-3.43,11.17-3.68c2.93-0.18,5.86-0.57,8.77-0.99c3.66-0.52,4.72-1.62,4.76-4.63c0.04-3.13-0.95-4.17-4.63-4.59
	c-1.45-0.17-2.93-0.16-4.4-0.16C98.88,26.37,93.21,26.38,87.53,26.38z"/>
<path d="M191.05,33.91c0.01,2.85-2.04,4.18-6.35,4.14c-1.91-0.02-2.99-1.46-2.94-3.93c0.07-3.46,2.69-6.17,5.78-5.97
	C189.7,28.29,191.03,30.48,191.05,33.91z"/>
<path d="M167.72,29.55c4.41,0.02,5.93,1.58,5.44,4.68c-0.14,0.87-0.93,1.83-1.69,2.36c-0.82,0.57-1.94,0.83-2.96,0.99
	c-1.68,0.27-3.4,0.27-4.66-1.13c-0.78-0.86-0.67-4.25,0.55-5.32C165.54,30.12,167.25,29.75,167.72,29.55z"/>
<path d="M200.47,33.82c0.11-0.63,0.17-1.9,0.56-3.05c0.59-1.74,2-2.54,3.82-2.66c1.87-0.12,3.23,0.63,3.92,2.38
	c0.37,0.95,0.85,1.99,0.77,2.95c-0.07,0.88-0.64,1.93-1.33,2.49c-0.94,0.75-2.18,1.16-3.34,1.61
	C202.14,38.6,200.56,37.45,200.47,33.82z"/>
<path d="M142.19,153.11c1.74,0.09,3.36-0.05,3.98,1.68c0.86,2.4,0,5.15-1.85,6.09c-1.96,0.99-3.96,1.4-5.99,0.13
	c-1.9-1.18-2.02-3.03-1.92-4.98c0.07-1.49,0.93-2.29,2.31-2.52C139.96,153.31,141.22,153.22,142.19,153.11z"/>
</svg>
